Coordinates
version=1
nRows=17
nColumns=24
inDegrees=yes

Units are S.I. units (second, meters, Newtons, ...)
Angles are in degrees.

endheader
time	pelvis_tilt	pelvis_list	pelvis_rotation	pelvis_tx	pelvis_ty	pelvis_tz	hip_flexion_r	hip_adduction_r	hip_rotation_r	knee_angle_r	ankle_angle_r	subtalar_angle_r	mtp_angle_r	hip_flexion_l	hip_adduction_l	hip_rotation_l	knee_angle_l	ankle_angle_l	subtalar_angle_l	mtp_angle_l	lumbar_extension	lumbar_bending	lumbar_rotation
      5.91000000	     14.65937625	     10.47307726	    -10.05143001	      2.13070004	      0.75128891	     -0.25993556	      3.62275886	    -14.85271656	      5.66775628	    -67.21232298	     14.06854140	    -15.84684669	      0.00000000	     -1.31267045	     18.24965030	     -0.23465451	    -17.11404812	     20.53962259	     -2.36496270	      0.00000000	    -32.19421162	     -9.10949879	     -1.82521583
      5.91500000	     14.62899204	     10.50356872	     -9.96186150	      2.13772086	      0.75178544	     -0.26038905	      4.88824974	    -14.66745962	      5.99202228	    -66.92622154	     14.87874709	    -16.14538053	      0.00000000	     -2.15593134	     18.41336422	      0.18094182	    -16.62172416	     20.85307714	     -2.28431940	      0.00000000	    -32.22467570	     -8.95468272	     -2.30967190
      5.92000000	     14.49152094	     10.63568776	     -9.69785797	      2.14472453	      0.75207152	     -0.26106500	      6.22123696	    -14.63254093	      6.11755763	    -66.55743179	     15.80257750	    -16.09067549	      0.00000000	     -2.85482053	     18.66818563	      0.79601015	    -16.21427313	     21.09078672	     -2.38680152	      0.00000000	    -32.15195388	     -8.79927365	     -3.04303831
      5.92500000	     14.38468283	     10.70262960	     -9.47281113	      2.15172853	      0.75235384	     -0.26164909	      7.48422131	    -14.52192851	      6.26657211	    -66.05404769	     16.56129022	    -16.09854653	      0.00000000	     -3.61376476	     18.84592763	      1.38862928	    -15.76992776	     21.33015872	     -2.42560048	      0.00000000	    -32.11860921	     -8.61915774	     -3.65431104
      5.93000000	     14.29804361	     10.76011705	     -9.21364743	      2.15873687	      0.75258731	     -0.26221975	      8.66759857	    -14.41553744	      6.34745435	    -65.41764179	     17.25424638	    -16.16383983	      0.00000000	     -4.38542097	     18.99393561	      1.89659025	    -15.36583319	     21.63502750	     -2.36737182	      0.00000000	    -32.11493270	     -8.42244090	     -4.30832568
      5.93500000	     14.20610135	     10.80787090	     -8.90287286	      2.16573451	      0.75275877	     -0.26279377	      9.80166607	    -14.31731993	      6.34613352	    -64.66653380	     17.87945985	    -16.17946173	      0.00000000	     -5.15426346	     19.11246314	      2.44361360	    -14.98654922	     21.94132326	     -2.26819360	      0.00000000	    -32.11824385	     -8.20826955	     -4.98967944
      5.94000000	     14.12309302	     10.85312954	     -8.56503991	      2.17273665	      0.75286775	     -0.26336655	     10.87330152	    -14.23660710	      6.28405420	    -63.79450024	     18.45386147	    -16.23608737	      0.00000000	     -5.92761745	     19.21162808	      2.93523177	    -14.63201764	     22.28834943	     -2.12573435	      0.00000000	    -32.13720152	     -7.98600902	     -5.68120974
      5.94500000	     14.04143992	     10.89054239	     -8.17363696	      2.17973290	      0.75293347	     -0.26393366	     11.87758383	    -14.16752853	      6.14326352	    -62.80200495	     18.95729644	    -16.25734523	      0.00000000	     -6.70441364	     19.28020823	      3.46343829	    -14.30522722	     22.64055112	     -1.93813758	      0.00000000	    -32.17056877	     -7.74758413	     -6.40480182
      5.95000000	     13.97002538	     10.92428772	     -7.74646921	      2.18672039	      0.75295309	     -0.26450577	     12.81254641	    -14.11523743	      5.94671793	    -61.69497724	     19.39676835	    -16.26847622	      0.00000000	     -7.49153033	     19.32703253	      3.99295235	    -13.99927546	     23.00101816	     -1.71915405	      0.00000000	    -32.22473069	     -7.49827359	     -7.13778960
      5.95500000	     13.90329335	     10.95916325	     -7.28882144	      2.19371589	      0.75291583	     -0.26505671	     13.68331379	    -14.08963621	      5.67560671	    -60.47379973	     19.80196582	    -16.29508608	      0.00000000	     -8.27754110	     19.35373898	      4.49759717	    -13.72269084	     23.39052038	     -1.46757186	      0.00000000	    -32.28927181	     -7.25117638	     -7.87924253
      5.96000000	     13.85055792	     10.98642238	     -6.78440234	      2.20069449	      0.75285050	     -0.26561310	     14.47054328	    -14.08045037	      5.33416352	    -59.13862229	     20.14693364	    -16.27393072	      0.00000000	     -9.07826894	     19.35060824	      5.03466510	    -13.47103362	     23.78587294	     -1.18039734	      0.00000000	    -32.38198723	     -6.98371390	     -8.64930910
      5.96500000	     13.80112115	     11.01877559	     -6.26169623	      2.20767833	      0.75273095	     -0.26613927	     15.19762852	    -14.09484681	      4.94658606	    -57.69703653	     20.45973660	    -16.23538164	      0.00000000	     -9.87852864	     19.33130533	      5.54710686	    -13.23528305	     24.19352070	     -0.88150714	      0.00000000	    -32.48139890	     -6.72692232	     -9.41202347
      5.97000000	     13.76470025	     11.04951309	     -5.70701964	      2.21465663	      0.75257913	     -0.26665664	     15.84451264	    -14.13169325	      4.49673316	    -56.14788610	     20.73337137	    -16.13240205	      0.00000000	    -10.68828411	     19.28913023	      6.07972602	    -13.02605778	     24.60521052	     -0.56113990	      0.00000000	    -32.60314575	     -6.46228695	    -10.18835646
      5.97500000	     13.73485034	     11.08403934	     -5.12639684	      2.22163293	      0.75238915	     -0.26715337	     16.41957855	    -14.19205913	      3.99383881	    -54.49457725	     20.98664938	    -15.96221969	      0.00000000	    -11.50224429	     19.22700117	      6.61501001	    -12.83204118	     25.02253240	     -0.23009642	      0.00000000	    -32.73703957	     -6.20232568	    -10.96758592
      5.98000000	     13.70864800	     11.12386122	     -4.52807703	      2.22862022	      0.75215267	     -0.26763011	     16.92745903	    -14.27833221	      3.43730130	    -52.74218392	     21.22506121	    -15.70898385	      0.00000000	    -12.31475377	     19.14946845	      7.14932367	    -12.65827857	     25.44232731	      0.10712867	      0.00000000	    -32.87627453	     -5.94843671	    -11.74630635
      5.98500000	     13.68833125	     11.17058450	     -3.90734496	      2.23561650	      0.75187964	     -0.26809525	     17.36157893	    -14.39074433	      2.82803547	    -50.89432172	     21.45354461	    -15.34510350	      0.00000000	    -13.12931242	     19.05654209	      7.68949873	    -12.50257759	     25.86356790	      0.45318856	      0.00000000	    -33.02301026	     -5.69543718	    -12.53065705
      5.99000000	     13.66652150	     11.22494552	     -3.27378699	      2.24262686	      0.75156222	     -0.26852566	     17.73251526	    -14.52343686	      2.17190231	    -48.95633923	     21.67562599	    -14.86454260	      0.00000000	    -13.93665077	     18.94802863	      8.22270296	    -12.36333059	     26.28348347	      0.80498153	      0.00000000	    -33.16701280	     -5.45580428	    -13.31162369
